<?xml version="1.0" encoding="utf-8"?>
<!-- Generator: Adobe Illustrator 21.1.0, SVG Export Plug-In . SVG Version: 6.00 Build 0)  -->
<svg version="1.1" id="图层_1" xmlns="http://www.w3.org/2000/svg" xmlns:xlink="http://www.w3.org/1999/xlink" x="0px" y="0px"
	 viewBox="0 0 176 33" style="enable-background:new 0 0 176 33;" xml:space="preserve">
<style type="text/css">
	.st0{display:none;enable-background:new    ;}
	.st1{display:inline;fill:#333333;}
	.st2{display:inline;fill:#009A61;}
	.st3{fill:#333333;}
	.st4{fill:#009A61;}
</style>
<title>logo</title>
<g class="st0">
	<path class="st1" d="M16.9,6.3h-5v8.1h4.6v1.7h-4.6V26H10V4.7h6.9V6.3z"/>
	<path class="st1" d="M26.8,26H25v-0.4c-0.7,0.1-1.4,0.2-2.2,0.3c-0.9,0.1-1.6,0.2-2.1,0.2c-1,0-1.5-0.5-1.5-1.5v-4.8
		c0-1,0.5-1.5,1.5-1.5H25v-4h-3.9v2.3h-1.8v-2.2c0-1,0.5-1.5,1.5-1.5h4.4c1,0,1.5,0.5,1.5,1.5L26.8,26L26.8,26z M25,24.4v-4.7h-4
		v4.8L25,24.4z"/>
	<path class="st1" d="M37.4,26h-1.8V14.4l-4,0.1V26h-1.8V12.7h1.8v0.4c0.7-0.1,1.4-0.2,2.1-0.3c0.9-0.1,1.6-0.2,2.2-0.2
		c1,0,1.5,0.5,1.5,1.5V26z"/>
	<path class="st1" d="M45.1,26h-2.6c-1,0-1.5-0.5-1.5-1.5V14.3h-1.6v-1.6H41V8.6h1.8v4.1h2.3v1.6h-2.3v10.1h2.3V26z"/>
	<path class="st1" d="M54.9,26h-1.8v-0.4c-0.7,0.1-1.4,0.2-2.2,0.3c-0.9,0.1-1.6,0.2-2.1,0.2c-1,0-1.5-0.5-1.5-1.5v-4.8
		c0-1,0.5-1.5,1.5-1.5h4.3v-4h-3.9v2.3h-1.8v-2.2c0-1,0.5-1.5,1.5-1.5h4.4c1,0,1.5,0.5,1.5,1.5L54.9,26L54.9,26z M53.2,24.4v-4.7
		h-4.1v4.8L53.2,24.4z"/>
	<path class="st1" d="M65.1,24.5c0,1-0.5,1.5-1.5,1.5h-4.2c-1,0-1.5-0.5-1.5-1.5v-3h1.8v3h3.7v-2.6L58.6,18
		c-0.5-0.4-0.7-0.8-0.7-1.4v-2.2c0-1,0.5-1.5,1.5-1.5h4.1c1,0,1.5,0.5,1.5,1.5V17h-1.8v-2.6h-3.7v2.3l4.8,3.9C64.7,21,65,21.4,65,22
		L65.1,24.5L65.1,24.5z"/>
	<path class="st1" d="M72.7,26h-2.6c-1,0-1.5-0.5-1.5-1.5V14.3H67v-1.6h1.6V8.6h1.8v4.1h2.3v1.6h-2.3v10.1h2.3
		C72.7,24.4,72.7,26,72.7,26z"/>
	<path class="st1" d="M77,9.8h-1.8V7.5H77V9.8z M76.9,26h-1.8V12.7h1.8V26z"/>
	<path class="st1" d="M87.4,24.5c0,1-0.5,1.5-1.5,1.5h-4.3c-1,0-1.5-0.5-1.5-1.5V14.3c0-1,0.5-1.5,1.5-1.5h4.3c1,0,1.5,0.5,1.5,1.5
		v2.6h-1.8v-2.6h-3.8v10.1h3.8v-3h1.8V24.5z"/>
</g>
<g class="st0">
	<path class="st2" d="M105.6,24.5c0,0.4-0.1,0.8-0.4,1.1s-0.7,0.4-1.1,0.4h-5.5c-0.4,0-0.8-0.1-1.1-0.4s-0.4-0.6-0.4-1.1V6.2
		c0-0.4,0.1-0.8,0.4-1.1s0.6-0.4,1.1-0.4h5.5c0.4,0,0.8,0.1,1.1,0.4s0.4,0.6,0.4,1.1v5h-1.9V6.3H99v18h4.8V19h1.9v5.5H105.6z"/>
	<path class="st2" d="M116.3,26h-1.8v-0.4c-0.7,0.1-1.4,0.2-2.2,0.3c-0.9,0.1-1.6,0.2-2.1,0.2c-1,0-1.5-0.5-1.5-1.5v-4.8
		c0-1,0.5-1.5,1.5-1.5h4.3v-4h-3.9v2.3h-1.8v-2.2c0-1,0.5-1.5,1.5-1.5h4.4c1,0,1.5,0.5,1.5,1.5L116.3,26L116.3,26z M114.5,24.4v-4.7
		h-4.1v4.8L114.5,24.4z"/>
	<path class="st2" d="M126.2,17.1h-1.8v-2.7l-3.3,0.1V26h-1.8V12.7h1.8v0.4c0.6-0.1,1.2-0.2,1.8-0.3c0.7-0.1,1.3-0.2,1.8-0.2
		c1,0,1.5,0.5,1.5,1.5V17.1z"/>
	<path class="st2" d="M136.1,26h-1.8V14.4l-4,0.1V26h-1.8V12.7h1.8v0.4c0.7-0.1,1.4-0.2,2.1-0.3c0.9-0.1,1.6-0.2,2.2-0.2
		c1,0,1.5,0.5,1.5,1.5V26z"/>
	<path class="st2" d="M141,9.8h-1.8V7.5h1.8V9.8z M140.9,26h-1.8V12.7h1.8V26z"/>
	<path class="st2" d="M151.5,12.7L148.2,26h-1.7l-3.3-13.3h1.9l2.3,10.5l2.3-10.5C149.7,12.7,151.5,12.7,151.5,12.7z"/>
	<path class="st2" d="M161.2,26h-1.8v-0.4c-0.7,0.1-1.4,0.2-2.2,0.3c-0.9,0.1-1.6,0.2-2.1,0.2c-1,0-1.5-0.5-1.5-1.5v-4.8
		c0-1,0.5-1.5,1.5-1.5h4.3v-4h-3.9v2.3h-1.8v-2.2c0-1,0.5-1.5,1.5-1.5h4.4c1,0,1.5,0.5,1.5,1.5V26H161.2z M159.5,24.4v-4.7h-4.1v4.8
		L159.5,24.4z"/>
	<path class="st2" d="M166.1,26h-1.8V4.7h1.8V26z"/>
</g>
<g>
	<path class="st3" d="M15.8,7.6h-5.5v6.3H15v2.7h-4.7v9.3H7.2V4.8h8.6V7.6z"/>
	<path class="st3" d="M26.2,25.9h-3v-0.5c-0.7,0.1-1.4,0.2-2.1,0.3C20.2,25.9,19.5,26,19,26c-1.1,0-1.7-0.6-1.7-1.7v-4.9
		c0-1.1,0.6-1.7,1.7-1.7h4.2v-3.1h-3v1.9h-2.8V14c0-1.1,0.6-1.7,1.7-1.7h5.2c1.1,0,1.7,0.6,1.7,1.7V25.9z M23.3,23.5v-3.7h-3v3.8
		L23.3,23.5z"/>
	<path class="st3" d="M37.5,25.9h-3.1V14.9l-2.9,0.1v11h-3.1V12.3h3.1v0.5c0.7-0.1,1.4-0.2,2.1-0.3c0.9-0.1,1.6-0.2,2.2-0.2
		c1.1,0,1.7,0.6,1.7,1.7V25.9z"/>
	<path class="st3" d="M45.6,25.9h-3.4c-1.1,0-1.7-0.6-1.7-1.7v-9.3H39v-2.6h1.5V8.6h3.1v3.7h2v2.6h-2v8.4h2.1V25.9z"/>
	<path class="st3" d="M56.1,25.9h-3v-0.5c-0.7,0.1-1.4,0.2-2.1,0.3C50.1,25.9,49.4,26,49,26c-1.1,0-1.7-0.6-1.7-1.7v-4.9
		c0-1.1,0.6-1.7,1.7-1.7h4.2v-3.1h-3v1.9h-2.8V14c0-1.1,0.6-1.7,1.7-1.7h5.2c1.1,0,1.7,0.6,1.7,1.7V25.9z M53.2,23.5v-3.7h-3v3.8
		L53.2,23.5z"/>
	<path class="st3" d="M66.9,24.2c0,1.1-0.6,1.7-1.7,1.7H60c-1.1,0-1.7-0.6-1.7-1.7v-2.9h3v2.3h2.7v-2.2l-4.7-2.8
		c-0.6-0.4-0.9-0.9-0.9-1.5V14c0-1.1,0.6-1.7,1.7-1.7h5.1c1.1,0,1.7,0.6,1.7,1.7v2.7h-2.9v-2.1h-2.7v2l4.7,2.8
		c0.6,0.4,0.9,0.9,0.9,1.5V24.2z"/>
	<path class="st3" d="M74.9,25.9h-3.4c-1.1,0-1.7-0.6-1.7-1.7v-9.3h-1.5v-2.6h1.5V8.6h3.1v3.7h2v2.6h-2v8.4h2.1V25.9z"/>
	<path class="st3" d="M79.8,10.3h-3.1V7.1h3.1V10.3z M79.8,25.9h-3V12.3h3V25.9z"/>
	<path class="st3" d="M90.9,24.2c0,1.1-0.6,1.7-1.7,1.7h-5.4c-1.2,0-1.7-0.6-1.7-1.7V14c0-1.1,0.6-1.7,1.7-1.7h5.4
		c1.1,0,1.7,0.6,1.7,1.7v3.2h-3v-2.3h-2.8v8.5h2.8v-2.6h3V24.2z"/>
	<path class="st4" d="M103.7,24c0,1.3-0.6,1.9-1.9,1.9h-6.6c-1.3,0-1.9-0.6-1.9-1.9V6.7c0-1.3,0.6-1.9,1.9-1.9h6.6
		c1.3,0,1.9,0.6,1.9,1.9v4.9h-3.1V7.5h-4.1v15.7h4.1v-4.4h3.1V24z"/>
	<path class="st4" d="M114.8,25.9h-3v-0.5c-0.7,0.1-1.4,0.2-2.1,0.3c-0.9,0.1-1.6,0.2-2.1,0.2c-1.1,0-1.7-0.6-1.7-1.7v-4.9
		c0-1.1,0.6-1.7,1.7-1.7h4.2v-3.1h-3v1.9h-2.8V14c0-1.1,0.6-1.7,1.7-1.7h5.2c1.1,0,1.7,0.6,1.7,1.7V25.9z M111.8,23.5v-3.7h-3v3.8
		L111.8,23.5z"/>
	<path class="st4" d="M125.6,18h-3.1v-3.1l-2.4,0.1v11H117V12.3h3.1v0.5c0.6-0.1,1.3-0.2,1.9-0.4c0.8-0.1,1.4-0.2,1.9-0.2
		c1.1,0,1.7,0.6,1.7,1.7V18z"/>
	<path class="st4" d="M136.4,25.9h-3.1V14.9l-2.9,0.1v11h-3.1V12.3h3.1v0.5c0.7-0.1,1.4-0.2,2.1-0.3c0.9-0.1,1.6-0.2,2.2-0.2
		c1.1,0,1.7,0.6,1.7,1.7V25.9z"/>
	<path class="st4" d="M141.8,10.3h-3.1V7.1h3.1V10.3z M141.8,25.9h-3V12.3h3V25.9z"/>
	<path class="st4" d="M153.3,12.3L149.8,26h-3l-3.5-13.7h3.2l1.8,9l1.8-9H153.3z"/>
	<path class="st4" d="M163.6,25.9h-3v-0.5c-0.7,0.1-1.4,0.2-2.1,0.3c-0.9,0.1-1.6,0.2-2.1,0.2c-1.1,0-1.7-0.6-1.7-1.7v-4.9
		c0-1.1,0.6-1.7,1.7-1.7h4.2v-3.1h-3v1.9h-2.8V14c0-1.1,0.6-1.7,1.7-1.7h5.2c1.1,0,1.7,0.6,1.7,1.7V25.9z M160.7,23.5v-3.7h-3v3.8
		L160.7,23.5z"/>
	<path class="st4" d="M168.9,25.9h-3V4.8h3V25.9z"/>
</g>
</svg>
